<?xml version="1.0" encoding="utf-8"?>
<!-- Generator: Adobe Illustrator 21.1.0, SVG Export Plug-In . SVG Version: 6.00 Build 0)  -->
<svg version="1.1" id="Layer_1" xmlns="http://www.w3.org/2000/svg" xmlns:xlink="http://www.w3.org/1999/xlink" x="0px" y="0px"
	 viewBox="0 0 737.9 133.1" style="enable-background:new 0 0 737.9 133.1;" xml:space="preserve">
<style type="text/css">
	.st0{fill:#016495;}
	.st1{fill:#4B93B8;}
</style>
<polygon class="st0" points="104.8,25.7 104.8,0 0,56.4 0,76 104.8,133.1 104.8,107.4 23.8,66.3 "/>
<polygon class="st0" points="152.3,107.4 152.3,133.1 257.1,76 257.1,56.4 152.3,0 152.3,25.7 233.3,66.3 "/>
<circle class="st1" cx="138.6" cy="41.1" r="5"/>
<circle class="st1" cx="133.6" cy="19.2" r="7.7"/>
<circle class="st1" cx="117.6" cy="45.2" r="4.1"/>
<path class="st1" d="M215.8,67.6c-19.8,3-72.5,12.2-100.4,2c-31.2-11.4-66-4.9-78-3.7l91.6,46.5L215.8,67.6z"/>
<g>
	<g>
		<path class="st0" d="M427.9,7h-19.8l-42.7,119h22.9l0.6-1.6c2.7-7.1,6.9-17.4,12.8-31.5l8-20.3L420.4,43l10.3,29.7l8.1,20.3
			l5.2,12.8h-37.3l-8,20.3h53.6h0.2h22.6L427.9,7z"/>
	</g>
</g>
<g>
	<g>
		<polygon class="st1" points="688.3,66.9 733.1,8.6 706.4,8.6 665.9,62.4 665.9,72.3 710.1,126.1 737.9,126.1 		"/>
	</g>
</g>
<g>
	<g>
		<path class="st0" d="M554.9,62.5c8.6-8.1,10.8-21.6,5.8-33.8C555.6,16,544.7,8.6,531,8.6h-49.3v117.4H535
			c23.1,0,35.2-18.3,35.2-36.4C570.2,77.2,564.6,68.2,554.9,62.5z M535,105.3h-32.2v-27v-3.8V53.3V52V29.1H531
			c7.3,0,10.6,6,10.6,11.9c0,3.2-0.9,7.8-2.6,10c-2,2.4-4.8,3.7-8.1,3.7h-17.5v21.1h21.8c9.5,0,13.7,6.5,13.7,13.9
			C548.9,97.2,544.5,105.3,535,105.3z"/>
	</g>
</g>
<g>
	<g>
		<path class="st1" d="M638.2,59l-1.8,2.6C637,60.8,637.6,59.9,638.2,59z"/>
	</g>
</g>
<g>
	<g>
		<path class="st1" d="M618.5,7.4c-30.1,0-43.8,21.6-43.8,41.6c0,15,7.8,28.7,20.2,35.8c3.1,1.8,6.8,2.9,10.7,3.6l12.9-19.2
			c-15.4,0-22.4-10.4-22.4-20.1c0-10,6.9-20,22.4-20c15.5,0,22.4,10.1,22.4,20c0,3.4-0.9,6.9-2.7,10.1l0.1-0.2l-0.1,0.2
			c-0.5,0.9-1.1,1.8-1.8,2.6l-18.7,26.7l-26.6,37.7h26.2L655.1,73c4.7-7.3,7.3-15.9,7.3-24C662.4,28.3,647.3,7.4,618.5,7.4z"/>
	</g>
</g>
<polygon class="st0" points="308.6,8.6 287.4,8.6 287.4,126.1 308.6,126.1 308.6,104.8 "/>
<rect x="316.5" y="104.8" class="st0" width="45" height="21.3"/>
</svg>
